<svg width="20" height="20" viewBox="0 0 20 20" fill="none" xmlns="http://www.w3.org/2000/svg">
<path d="M2.66679 0.423846L9.99921 7.75627L17.3316 0.446066C17.476 0.299172 17.6493 0.183832 17.8405 0.10734C18.0317 0.0308481 18.2368 -0.00513146 18.4426 0.00167644C18.8465 0.0278162 19.2271 0.200076 19.5133 0.486292C19.7996 0.772508 19.9718 1.15311 19.998 1.55704C20 1.75564 19.9616 1.95258 19.8852 2.13592C19.8088 2.31925 19.696 2.48516 19.5536 2.62357L12.1989 10.0004L19.5536 17.3773C19.8424 17.6573 20.0024 18.0439 19.998 18.4438C19.9718 18.8477 19.7996 19.2284 19.5133 19.5146C19.2271 19.8008 18.8465 19.973 18.4426 19.9992C18.2368 20.006 18.0317 19.97 17.8405 19.8935C17.6493 19.817 17.476 19.7017 17.3316 19.5548L9.99921 12.2446L2.68901 19.5548C2.54464 19.7017 2.37136 19.817 2.18014 19.8935C1.98891 19.97 1.78388 20.006 1.57804 19.9992C1.16658 19.9778 0.777637 19.8047 0.486296 19.5133C0.194956 19.222 0.021872 18.8331 0.000454783 18.4216C-0.00155564 18.223 0.036797 18.0261 0.113186 17.8427C0.189575 17.6594 0.302409 17.4935 0.444844 17.3551L7.79948 10.0004L0.422625 2.62357C0.284201 2.48329 0.175473 2.31654 0.102938 2.13329C0.0304022 1.95005 -0.00445289 1.75406 0.000454783 1.55704C0.0265946 1.15311 0.198855 0.772508 0.485071 0.486292C0.771287 0.200076 1.15189 0.0278162 1.55582 0.00167644C1.76006 -0.0080245 1.96412 0.0244542 2.15526 0.0970879C2.3464 0.169722 2.52053 0.280953 2.66679 0.423846Z" fill="#2C365A"/>
</svg>