<svg width="42" height="40" viewBox="0 0 42 40" fill="none" xmlns="http://www.w3.org/2000/svg">
<path d="M17.0294 0.156357C15.6703 0.429795 13.3081 1.18761 12.5881 1.58604C12.1674 1.81261 11.9409 2.18761 11.9409 2.67198C11.9409 3.09386 12.1108 3.36729 12.5396 3.64854C12.9602 3.92979 13.3647 3.88292 14.5054 3.44542C15.7027 2.98448 16.9242 2.63292 17.9597 2.45323C18.3804 2.38292 18.8415 2.25792 18.979 2.17979C19.3431 1.96886 19.521 1.56261 19.4806 1.03917C19.4482 0.679795 19.3997 0.57042 19.1489 0.328232C18.8739 0.062607 18.8172 0.046982 18.3076 0.0235445C18.0002 0.015732 17.442 0.0704195 17.0294 0.156357Z" fill="#645F5F"/>
<path d="M22.433 0.171852C22.0285 0.445289 21.891 0.757789 21.9395 1.28123C21.988 1.88279 22.3197 2.21873 22.9669 2.35154C24.326 2.61716 24.6172 2.67966 25.3291 2.8906C25.7579 3.02341 26.5183 3.28123 27.0199 3.47654C28.0392 3.87498 28.4194 3.91404 28.8805 3.66404C29.2769 3.44529 29.463 3.12498 29.463 2.64841C29.463 1.8281 29.018 1.53123 26.6154 0.749977C24.3503 0.0156019 22.9507 -0.171898 22.433 0.171852Z" fill="#645F5F"/>
<path d="M31.898 3.90628C31.4612 4.09378 31.2266 4.45316 31.2266 4.93753C31.2266 5.14066 31.2589 5.38284 31.2994 5.49222C31.3398 5.59378 31.8495 6.07034 32.44 6.56253C33.0225 7.0469 33.8234 7.7969 34.2036 8.22659C35.6031 9.7969 35.5061 9.71097 36.0885 9.74222C36.7276 9.78128 37.0674 9.6094 37.2939 9.11722C37.488 8.71878 37.4961 8.51565 37.3343 8.14847C36.946 7.25003 33.8315 4.24222 32.9011 3.86722C32.5209 3.71097 32.3106 3.71878 31.898 3.90628Z" fill="#645F5F"/>
<path d="M4.09348 4.52344C3.33304 5.00781 3.34113 6.14844 4.10966 6.57812C4.25528 6.66406 4.52224 6.71875 4.76493 6.71875H5.17751L4.61123 7.39844C2.34609 10.1016 0.889929 13.2109 0.234657 16.7734C-0.0161266 18.1016 -0.0727551 20.9766 0.11331 22.4297C0.703864 26.9453 2.70204 30.8984 6.02694 34.1016C6.64985 34.7109 7.46692 35.4297 7.84714 35.7109C10.8161 37.9297 13.8902 39.2188 17.5953 39.8203C18.3153 39.9297 18.9301 39.9609 20.7503 39.9609C23.1854 39.9531 24.0348 39.8672 25.8874 39.4062C32.7798 37.6797 38.378 32.6562 40.5703 26.2109C41.0152 24.9141 41.3388 23.5078 41.3955 22.6406C41.4359 22.0078 41.4278 21.9375 41.2498 21.6797C40.9586 21.2812 40.6512 21.1406 40.093 21.1875C39.7128 21.2188 39.5914 21.2656 39.3568 21.4844C39.0656 21.7578 39.0737 21.7266 38.742 23.3984C37.5124 29.6328 32.3268 35.0156 25.7256 36.9062C22.7728 37.7578 19.3023 37.8203 16.2848 37.0781C13.0812 36.2969 10.2174 34.7109 7.84714 32.4219C5.47683 30.1328 3.83461 27.3672 3.02563 24.2734C2.34609 21.6953 2.32182 18.6328 2.96091 16.0156C3.55147 13.5859 4.8701 10.9922 6.52042 8.99219L6.99771 8.41406L7.03816 8.83594C7.06243 9.07031 7.14333 9.35938 7.22423 9.47656C7.70961 10.1953 8.84218 10.1641 9.3033 9.4375C9.45701 9.19531 9.4651 9.03906 9.4651 7.14844C9.4651 4.22656 9.62689 4.375 6.51233 4.375C4.49797 4.375 4.31191 4.39062 4.09348 4.52344Z" fill="#645F5F"/>
<path d="M19.0516 7.07812C18.2831 7.1875 17.1263 7.45312 16.4791 7.65625C11.7385 9.19531 8.20325 13.2734 7.47517 18.0625C7.2972 19.2656 7.35383 21.5859 7.59652 22.6406C8.76954 27.75 12.685 31.5234 18 32.6719C18.7119 32.8203 19.0436 32.8438 20.7101 32.8438C22.3765 32.8438 22.7082 32.8281 23.4039 32.6719C28.7594 31.5156 32.6344 27.7734 33.8317 22.6016C33.9935 21.9297 34.0097 21.6094 34.0097 20C34.0097 17.9531 33.9288 17.4297 33.3706 15.8125C31.882 11.5 28.0718 8.23438 23.4039 7.25781C22.7729 7.125 22.2795 7.08594 20.9527 7.07031C20.0386 7.05469 19.1892 7.0625 19.0516 7.07812ZM21.2925 9.65625C22.3846 10.3906 23.4444 12.7812 23.9379 15.6641C24.1159 16.6562 24.2696 18.0156 24.2696 18.5234V18.8281H20.702H17.1263L17.1829 18.0234C17.4418 14.2734 18.7038 10.6484 20.0871 9.67969C20.4997 9.39062 20.8799 9.38281 21.2925 9.65625ZM16.196 11.0312C15.4112 12.7969 14.8369 15.4297 14.6751 17.9844L14.6184 18.8281H12.2562H9.89402L9.96683 18.375C10.4037 15.625 12.0944 12.9844 14.4405 11.3594C14.9663 11 16.4387 10.2188 16.4872 10.2734C16.5034 10.2891 16.3739 10.6328 16.196 11.0312ZM26.7369 11.2109C29.1881 12.7812 31.0003 15.5312 31.4533 18.375L31.5261 18.8281H29.1639H26.8017L26.745 17.9844C26.5832 15.5234 26.025 12.9297 25.2889 11.2109C24.8278 10.125 24.8116 10.1797 25.4911 10.5078C25.8228 10.6719 26.381 10.9844 26.7369 11.2109ZM14.7074 22.3906C14.7641 23.0547 14.9016 24.1328 15.0148 24.7734C15.3223 26.5625 15.6539 27.6328 16.4872 29.6016C16.5115 29.6641 16.1717 29.5312 15.7348 29.3125C12.6526 27.7422 10.4846 24.8594 9.96683 21.6172L9.89402 21.1719H12.2481H14.6104L14.7074 22.3906ZM24.2372 21.9688C23.9783 25.6953 22.7244 29.2656 21.3411 30.2422C20.6939 30.6875 20.0952 30.4688 19.3914 29.5156C18.2589 27.9844 17.3932 25.0312 17.1829 21.9688L17.1263 21.1719H20.7101H24.2938L24.2372 21.9688ZM31.4695 21.4609C31.4695 21.7422 31.2025 22.8047 30.976 23.4453C30.1185 25.8594 28.0879 28.1172 25.6934 29.3047C25.2565 29.5234 24.9086 29.6719 24.9248 29.6406C25.9118 27.4375 26.4781 25.1328 26.7046 22.4375L26.8097 21.25H29.1396H31.4695V21.4609Z" fill="#645F5F"/>
<path d="M38.2808 11.4844C37.9815 11.5547 37.6579 11.8125 37.488 12.125C37.2858 12.4922 37.3586 12.8906 37.7793 13.9141C38.3294 15.2266 38.6125 16.1094 38.8633 17.2656C39.0494 18.1485 39.0979 18.2656 39.3487 18.5078C39.5833 18.7344 39.6965 18.7813 40.0929 18.8125C40.6511 18.8594 41.0152 18.7031 41.274 18.2969C41.6543 17.6953 41.274 15.875 40.1819 13.1641C39.9635 12.6016 39.7046 12.0547 39.6237 11.9297C39.3568 11.5625 38.7905 11.375 38.2808 11.4844Z" fill="#645F5F"/>
</svg>