<svg width="12" height="20" viewBox="0 0 12 20" fill="none" xmlns="http://www.w3.org/2000/svg">
<path d="M11.2623 3.06492L4.31791 10.0093L11.2623 16.9537C11.428 17.1194 11.5595 17.3162 11.6491 17.5327C11.7388 17.7492 11.785 17.9812 11.785 18.2155C11.785 18.4499 11.7388 18.6819 11.6491 18.8984C11.5595 19.1149 11.428 19.3116 11.2623 19.4773C11.0966 19.643 10.8999 19.7745 10.6834 19.8642C10.4669 19.9538 10.2348 20 10.0005 20C9.76617 20 9.53413 19.9538 9.31763 19.8642C9.10113 19.7745 8.90441 19.643 8.7387 19.4773L0.523544 11.2622C-0.174476 10.5642 -0.174477 9.43659 0.523543 8.73857L8.7387 0.523415C8.90428 0.357495 9.10096 0.225861 9.31748 0.136046C9.534 0.0462305 9.7661 1.76495e-07 10.0005 1.56003e-07C10.2349 1.3551e-07 10.467 0.0462304 10.6835 0.136046C10.9001 0.225861 11.0967 0.357494 11.2623 0.523415C11.9424 1.22144 11.9603 2.3669 11.2623 3.06492Z" fill="#2C365A"/>
</svg>
