<svg width="42" height="40" viewBox="0 0 42 40" fill="none" xmlns="http://www.w3.org/2000/svg">
<path d="M20.0866 0.234253C18.9055 0.47644 18.0237 1.23425 17.6354 2.35144C17.3927 3.02332 17.4412 3.92175 17.7405 4.56238C17.9913 5.09363 18.6385 5.77332 19.132 6.02332L19.496 6.21082L19.496 8.84363V11.4843H16.794C15.3136 11.4843 13.9949 11.4999 13.8655 11.5233C13.6471 11.5624 13.372 11.3202 9.93386 8.03113L6.22874 4.49207L6.36626 3.99207C6.72221 2.64832 5.92941 1.10925 4.55415 0.484253C4.13348 0.296753 3.99595 0.273315 3.19506 0.273315C2.37799 0.273315 2.26473 0.28894 1.8198 0.499878C1.19688 0.796753 0.541607 1.43738 0.258464 2.00769C0.0643085 2.41394 0.0400391 2.54675 0.0400391 3.32019C0.0400391 4.13269 0.0562187 4.21082 0.298913 4.69519C0.614415 5.32019 1.19688 5.86707 1.84406 6.15613C2.24855 6.34363 2.40226 6.36707 3.15461 6.36707C3.62382 6.36707 4.10112 6.33582 4.21438 6.30457C4.41662 6.24207 4.65123 6.453 8.13793 9.77332C10.9613 12.4608 11.8511 13.3514 11.8431 13.4921C11.8431 13.5936 11.835 14.8124 11.8269 16.2108L11.8107 18.7499H9.01972H6.23683L6.02649 18.4061C5.73526 17.9296 5.09616 17.3749 4.54606 17.1249C4.13348 16.9374 3.98786 16.9139 3.19506 16.9139C2.35372 16.9139 2.27282 16.9296 1.77126 17.1639C1.12407 17.4686 0.557786 18.0311 0.258464 18.6561C0.0643085 19.0546 0.0400391 19.1952 0.0400391 19.9608C0.0400391 20.7343 0.0643085 20.8671 0.258464 21.2733C0.541607 21.8436 1.19688 22.4843 1.8198 22.7811C2.26473 22.9921 2.37799 23.0077 3.19506 23.0077C3.98786 23.0077 4.13348 22.9843 4.54606 22.7968C5.11234 22.5389 5.73526 21.9921 5.99413 21.5233L6.18829 21.1718H8.99545H11.8107L11.8269 23.7108C11.835 25.1093 11.8431 26.3436 11.8431 26.4608C11.8511 26.6483 11.2849 27.2264 8.15411 30.2186C4.45707 33.7577 4.44898 33.7655 4.19011 33.6952C4.04449 33.6639 3.5591 33.6327 3.11416 33.6327C2.36181 33.6327 2.26473 33.6483 1.77126 33.8827C1.12407 34.1874 0.557786 34.7499 0.258464 35.3749C0.0643085 35.7733 0.0400391 35.9139 0.0400391 36.6796C0.0400391 37.453 0.0643085 37.5858 0.258464 37.9921C0.541607 38.5624 1.19688 39.203 1.8198 39.4999C2.26473 39.7108 2.37799 39.7264 3.19506 39.7264C3.98786 39.7264 4.13348 39.703 4.54606 39.5155C5.91323 38.8983 6.70603 37.3671 6.35817 36.0155L6.22874 35.5077L9.96622 31.9296C13.4529 28.5936 13.728 28.3593 13.9464 28.3983C14.0758 28.4218 15.3702 28.4374 16.8345 28.4374H19.496V31.1171V33.7889L19.132 33.9764C18.6385 34.2264 17.9913 34.9061 17.7405 35.4374C17.4412 36.078 17.3927 36.9764 17.6354 37.6483C18.1046 38.9999 19.2371 39.7889 20.7095 39.7889C21.5346 39.7889 22.1252 39.6014 22.7319 39.1327C23.8564 38.2733 24.2609 36.6796 23.6784 35.4374C23.4277 34.9061 22.7805 34.2264 22.287 33.9764L21.9229 33.7889V31.1171V28.4374H24.5845C26.0487 28.4374 27.3431 28.4218 27.4726 28.3983C27.691 28.3593 27.9741 28.6093 31.4446 31.9296L35.1902 35.5077L35.0527 36.0077C34.6967 37.3514 35.4976 38.9061 36.8648 39.5077C37.5282 39.8046 38.4504 39.8436 39.2109 39.6171C40.1897 39.328 40.9906 38.5624 41.298 37.6171C41.5003 36.9764 41.4436 35.9686 41.1605 35.3749C40.8612 34.7499 40.2949 34.1952 39.6477 33.8827C39.1542 33.6483 39.0652 33.6327 38.2643 33.6327C37.7951 33.6327 37.3178 33.6639 37.1965 33.703C36.9862 33.7655 36.792 33.5936 33.2244 30.1874C29.5597 26.6796 29.4788 26.5936 29.5435 26.3671C29.5759 26.2421 29.6083 25.0155 29.6083 23.6561V21.1718L32.4235 21.1718H35.2307L35.3844 21.4843C35.6028 21.9218 36.3147 22.5468 36.8648 22.7968C37.5282 23.0858 38.5313 23.1327 39.2432 22.8983C39.8904 22.6874 40.4809 22.2655 40.8773 21.7186C41.3061 21.1249 41.4436 20.6014 41.4032 19.7655C41.3789 19.1952 41.3304 18.9999 41.112 18.578C40.8045 17.9608 40.2221 17.4139 39.5749 17.1249C39.1623 16.9374 39.0167 16.9139 38.2239 16.9139C37.4149 16.9139 37.2855 16.9374 36.8325 17.1405C36.2823 17.3827 35.5462 18.0546 35.3439 18.4921L35.2307 18.7499H32.4235L29.6083 18.7499L29.5921 16.2108C29.584 14.8124 29.5759 13.5858 29.5759 13.4921C29.5678 13.3514 30.4253 12.4921 33.2729 9.77332C36.9538 6.24988 36.97 6.23425 37.2369 6.30457C37.3745 6.33582 37.8599 6.36707 38.3048 6.36707C39.0086 6.36707 39.1704 6.34363 39.5749 6.15613C40.2221 5.86707 40.8045 5.32019 41.12 4.69519C41.3627 4.21082 41.3789 4.13269 41.3789 3.32019C41.3789 2.49988 41.3627 2.42957 41.112 1.93738C40.8045 1.328 40.2544 0.812378 39.5749 0.492065C39.1542 0.28894 39.0329 0.273315 38.2239 0.273315C37.4311 0.273315 37.2855 0.296753 36.8729 0.484253C35.9102 0.921753 35.1983 1.828 35.0203 2.85925C34.9394 3.31238 34.9394 3.48425 35.0527 3.94519L35.1902 4.49207L31.4851 8.03113C28.1521 11.2186 27.7719 11.5624 27.5858 11.5155C27.4726 11.4843 26.1539 11.4452 24.6573 11.4296L21.9229 11.3983V8.80457L21.9229 6.21082L22.287 6.02332C22.7805 5.77332 23.4277 5.09363 23.6784 4.56238C24.2771 3.30457 23.8402 1.67175 22.6753 0.812378C22.0119 0.32019 20.8794 0.0701904 20.0866 0.234253ZM21.0331 2.69519C21.5023 2.92957 21.5751 3.39832 21.203 3.75769C21.0412 3.91394 20.8875 3.98425 20.7095 3.98425C20.5315 3.98425 20.3778 3.91394 20.216 3.75769C19.852 3.40613 19.9167 2.93738 20.3697 2.703C20.6529 2.55457 20.7418 2.55457 21.0331 2.69519ZM3.56719 2.73425C3.79371 2.85144 3.97977 3.24207 3.91505 3.47644C3.79371 3.96082 3.07371 4.14832 2.70967 3.78894C2.1353 3.24207 2.8472 2.36707 3.56719 2.73425ZM38.7093 2.85144C39.1461 3.2655 38.8387 3.98425 38.232 3.98425C37.5686 3.98425 37.245 3.24207 37.7304 2.84363C38.0297 2.59363 38.4504 2.59363 38.7093 2.85144ZM26.8901 13.9061L27.1004 13.9843V19.8749C27.1004 23.1171 27.0762 25.8202 27.0519 25.8905C27.0033 25.9999 26.3723 26.0155 20.7095 26.0155C15.0466 26.0155 14.4156 25.9999 14.3671 25.8905C14.3428 25.8202 14.3185 23.1171 14.3185 19.8749V13.9764L14.5046 13.9061C14.7554 13.8124 26.6231 13.8046 26.8901 13.9061ZM3.68854 19.4843C4.17393 19.8827 3.85034 20.6249 3.18697 20.6249C2.79866 20.6249 2.50743 20.3358 2.50743 19.9608C2.50743 19.3671 3.21124 19.0858 3.68854 19.4843ZM38.7093 19.4921C39.13 19.8905 38.8387 20.6249 38.2643 20.6249C37.9246 20.6249 37.7223 20.5077 37.5767 20.2343C37.2289 19.578 38.1673 18.9608 38.7093 19.4921ZM3.68854 36.203C4.17393 36.6014 3.85034 37.3436 3.18697 37.3436C2.79866 37.3436 2.50743 37.0546 2.50743 36.6796C2.50743 36.0858 3.21124 35.8046 3.68854 36.203ZM21.203 36.2421C21.5913 36.6249 21.478 37.1327 20.9522 37.3436C20.5072 37.5233 19.9814 37.1718 19.9814 36.6952C19.9814 36.3827 20.3778 36.0155 20.7095 36.0155C20.8875 36.0155 21.0412 36.0858 21.203 36.2421ZM38.7093 36.2108C39.13 36.6093 38.8387 37.3436 38.2643 37.3436C37.9246 37.3436 37.7223 37.2264 37.5767 36.953C37.2289 36.2968 38.1673 35.6796 38.7093 36.2108Z" fill="#645F5F"/>
<path d="M16.2847 15.2421C16.042 15.3593 15.8964 15.4999 15.775 15.7421C15.6132 16.0624 15.6132 16.1639 15.6294 20.0624C15.6537 23.953 15.6618 24.0546 15.8236 24.2655C15.9125 24.3827 16.0905 24.5546 16.2119 24.6405C16.4303 24.8046 16.5193 24.8046 20.7098 24.8046C24.9003 24.8046 24.9893 24.8046 25.2077 24.6405C25.3291 24.5546 25.5071 24.3827 25.596 24.2655C25.7578 24.0546 25.7659 23.953 25.7902 20.0624C25.8064 16.1561 25.8064 16.0702 25.6446 15.7343C25.5152 15.4921 25.3776 15.3593 25.1268 15.2421C24.7952 15.0858 24.6576 15.078 20.7017 15.078C16.7377 15.078 16.6164 15.0858 16.2847 15.2421ZM23.2985 19.9608V22.4218H20.7098H18.1211V19.9608V17.4999H20.7098H23.2985V19.9608Z" fill="#645F5F"/>
</svg>
