<svg width="336" height="323" viewBox="0 0 336 323" fill="none" xmlns="http://www.w3.org/2000/svg">
<path d="M313.057 102.752L233.577 84.352L191.737 14.792L191.857 14.832C189.453 10.651 186.01 7.16198 181.861 4.70298C168.558 -3.18202 151.382 1.20998 143.497 14.513L101.337 84.393L21.857 102.793C17.318 103.814 13.105 105.95 9.59802 109.007C-2.05698 119.17 -3.26698 136.858 6.89702 148.513L60.497 210.233L53.417 291.673C53.012 296.252 53.74 300.861 55.537 305.092C61.584 319.325 78.024 325.96 92.257 319.913L167.497 287.913L240.417 318.833C245.32 321.497 250.908 322.636 256.463 322.102C271.856 320.623 283.136 306.946 281.657 291.553L274.577 210.113L327.217 149.473C330.772 145.767 333.238 141.154 334.348 136.14C337.688 121.041 328.156 106.093 313.057 102.752Z" fill="#FFD200"/>
</svg>
