<svg width="16" height="16" viewBox="0 0 16 16" fill="#fff" xmlns="http://www.w3.org/2000/svg">
<path d="M8 0L5.33333 5.33333L0 6L3.67111 10.1067L2.66667 16L8 13.3333L13.3333 16L12.3378 10.1067L16 6L10.6667 5.33333L8 0ZM8 1.99111L10.08 6.16L14.2133 6.67556L11.3867 9.84L12.16 14.4178L8 12.3378L3.84 14.4178L4.61333 9.84L1.78667 6.67556L5.92 6.16L8 1.99111Z" fill="#2C365A"/>
<path d="M8.00005 2L10 6L14.5 6.5L11.5 10L12 12L12.5 15L8 12.5L4 14.5L4.5 9.82624L1.5 6.5L6 6L7 4L8.00005 2Z" fill="white"/>
</svg>
