<svg width="16" height="16" viewBox="0 0 18 19" fill="none" xmlns="http://www.w3.org/2000/svg"  stroke= "transparent"
    stroke-width="0px">
<path d="M16.55 5.89546L12.6597 4.96475L10.6215 1.44228L10.6086 1.42224C10.4513 1.14342 10.2297 0.90985 9.9637 0.742578C9.08036 0.187044 7.93127 0.481399 7.39708 1.39998L5.34169 4.96252L1.46643 5.89546H1.4493L1.40648 5.90882C1.12499 5.98336 0.864102 6.12508 0.644593 6.32286C-0.134742 7.02495 -0.21926 8.25114 0.455861 9.06167L3.0722 12.1967L2.72107 16.3493C2.71888 16.3752 2.71888 16.4013 2.72107 16.4272C2.71572 16.5575 2.72289 16.6881 2.74248 16.8169C2.76673 16.9699 2.80843 17.1194 2.86666 17.2622C2.86736 17.2639 2.86805 17.2656 2.8687 17.2673C3.26918 18.2528 4.36196 18.714 5.30958 18.2976L8.99215 16.6744L12.5249 18.233C12.843 18.4079 13.2024 18.4852 13.5611 18.4557C14.5883 18.3646 15.3529 17.4294 15.2739 16.3604V16.3426L14.9228 12.1945L17.492 9.12402C17.7185 8.87341 17.8769 8.56498 17.9515 8.22998C18.1843 7.18282 17.5569 6.1376 16.55 5.89546ZM17.0167 8.28682C16.9744 8.36798 16.9219 8.44285 16.8604 8.50948L16.8369 8.5362L14.152 11.7536C14.0759 11.8451 14.0388 11.9649 14.0493 12.0854L14.409 16.4205C14.409 16.4272 14.409 16.4428 14.409 16.4428C14.4473 17.0103 14.0418 17.5053 13.4969 17.5561H13.484C13.2942 17.5736 13.1035 17.5326 12.9359 17.4381C12.914 17.4256 12.8911 17.4152 12.8674 17.4069L9.16129 15.7815C9.05456 15.7345 8.93402 15.7345 8.82729 15.7815L5.01197 17.4626C4.98912 17.4703 4.96691 17.48 4.9456 17.4915C4.4514 17.6874 3.89575 17.452 3.67383 16.9527C3.66682 16.9313 3.6582 16.9105 3.64814 16.8904C3.6233 16.8227 3.60537 16.7526 3.59461 16.6811C3.58482 16.5975 3.58482 16.513 3.59461 16.4295C3.59632 16.4065 3.59632 16.3834 3.59461 16.3604L3.95002 12.0854C3.9618 11.9522 3.91545 11.8206 3.8237 11.7269L1.10888 8.46717C1.00231 8.33886 0.927316 8.18562 0.89033 8.02052C0.764223 7.45764 1.10074 6.89498 1.64199 6.76383H1.66768L5.72066 5.79081C5.84136 5.76253 5.94445 5.68137 6.00327 5.56815L8.1443 1.86534C8.22925 1.7181 8.34775 1.59486 8.48933 1.50652C8.96587 1.2091 9.58399 1.36975 9.86997 1.86534L9.88282 1.8876L12.0131 5.58374V5.58597C12.0733 5.69123 12.1724 5.7661 12.2872 5.79304L16.3552 6.77274C16.4422 6.79356 16.5262 6.82629 16.6049 6.87015C17.0948 7.14307 17.2792 7.77732 17.0167 8.28682Z" fill="black" style="stroke-width:none;"/>
</svg>
