<svg width="16" height="16" viewBox="0 0 18 18" fill="none" xmlns="http://www.w3.org/2000/svg">
<path d="M16.8202 5.70984L12.5499 4.67949L10.3018 0.784335L10.3083 0.786575C10.1791 0.552451 9.99413 0.357077 9.77121 0.21938C9.05645 -0.222157 8.1336 0.0237822 7.70995 0.768712L5.44474 4.68179L1.17437 5.71214C0.930491 5.76931 0.704132 5.88892 0.515704 6.0601C-0.110506 6.6292 -0.175518 7.61968 0.370582 8.27233L3.25045 11.7285L2.87005 16.2889C2.84829 16.5453 2.88741 16.8034 2.98396 17.0403C3.30886 17.8373 4.19216 18.2088 4.95688 17.8702L8.99945 16.0783L12.9174 17.8098C13.1808 17.9589 13.481 18.0227 13.7795 17.9928C14.6065 17.91 15.2126 17.1441 15.1331 16.2822L14.7527 11.7217L17.581 8.32608C17.772 8.11856 17.9045 7.86024 17.9642 7.57947C18.1436 6.73397 17.6315 5.89693 16.8202 5.70984Z" fill="#FFD200"/>
</svg>
