<svg width="337" height="324" viewBox="0 0 337 324" fill="none" xmlns="http://www.w3.org/2000/svg">
<path d="M309.197 98.076L236.517 81.356L198.437 18.076L198.197 17.716C195.258 12.707 191.117 8.51103 186.148 5.50603C169.645 -4.47397 148.177 0.814026 138.197 17.316L99.7969 81.316L27.3969 98.076H27.0769L26.2769 98.316C21.0179 99.655 16.1439 102.201 12.0429 105.754C-2.51709 118.367 -4.09609 140.395 8.51691 154.956L57.3969 211.276L50.8369 285.876C50.7959 286.342 50.7959 286.81 50.8369 287.276C50.7369 289.617 50.8709 291.962 51.2369 294.276C51.6899 297.025 52.4689 299.711 53.5569 302.276C53.5699 302.306 53.5829 302.337 53.5949 302.367C61.0769 320.071 81.4929 328.357 99.1969 320.876L167.997 291.716L233.997 319.716C239.94 322.859 246.655 324.246 253.357 323.716C272.548 322.081 286.832 305.28 285.357 286.076V285.756L278.797 211.236L326.797 156.076C331.027 151.574 333.988 146.033 335.38 140.015C339.731 121.203 328.008 102.426 309.197 98.076ZM317.917 141.036C317.127 142.494 316.145 143.839 314.997 145.036L314.557 145.516L264.397 203.316C262.974 204.959 262.281 207.111 262.477 209.276L269.197 287.156C269.197 287.276 269.197 287.556 269.197 287.556C269.913 297.751 262.337 306.644 252.157 307.556H251.917C248.37 307.871 244.808 307.134 241.677 305.436C241.267 305.212 240.839 305.025 240.397 304.876L171.157 275.676C169.163 274.831 166.911 274.831 164.917 275.676L93.6369 305.876C93.2099 306.014 92.7949 306.188 92.3969 306.396C83.1639 309.915 72.7829 305.685 68.6369 296.716C68.5059 296.331 68.3449 295.957 68.1569 295.596C67.6929 294.381 67.3579 293.121 67.1569 291.836C66.9739 290.335 66.9739 288.817 67.1569 287.316C67.1889 286.903 67.1889 286.489 67.1569 286.076L73.7969 209.276C74.0169 206.884 73.1509 204.519 71.4369 202.836L20.7169 144.276C18.7259 141.971 17.3249 139.218 16.6339 136.252C14.2779 126.14 20.5649 116.032 30.6769 113.676H31.1569L106.877 96.196C109.132 95.688 111.058 94.23 112.157 92.196L152.157 25.676C153.744 23.031 155.958 20.817 158.603 19.23C167.506 13.887 179.054 16.773 184.397 25.676L184.637 26.076L224.437 92.476V92.516C225.56 94.407 227.412 95.752 229.557 96.236L305.557 113.836C307.183 114.21 308.752 114.798 310.223 115.586C319.375 120.489 322.82 131.883 317.917 141.036Z" fill="black"/>
</svg>
