<svg width="16" height="12" viewBox="0 0 16 11" fill="none" xmlns="http://www.w3.org/2000/svg">
<path d="M8 2.22223C7.70559 2.22683 7.41336 2.2736 7.13222 2.36112C7.26227 2.58982 7.33151 2.84804 7.33333 3.11112C7.33333 3.3154 7.2931 3.51767 7.21492 3.7064C7.13675 3.89513 7.02217 4.06662 6.87772 4.21106C6.73327 4.35551 6.56179 4.47009 6.37306 4.54827C6.18433 4.62644 5.98205 4.66668 5.77777 4.66668C5.51469 4.66485 5.25647 4.59561 5.02777 4.46556C4.84734 5.09134 4.86837 5.75803 5.08788 6.37119C5.3074 6.98435 5.71428 7.5129 6.25088 7.88197C6.78748 8.25104 7.4266 8.44193 8.07771 8.42758C8.72883 8.41324 9.35892 8.19439 9.87875 7.80204C10.3986 7.4097 10.7818 6.86374 10.9741 6.24151C11.1664 5.61927 11.158 4.95231 10.9502 4.33508C10.7424 3.71786 10.3456 3.18167 9.81613 2.80246C9.28665 2.42326 8.65127 2.22026 8 2.22223ZM15.9033 4.92779C14.397 1.98861 11.4147 0 8 0C4.58527 0 1.60221 1.99 0.0966517 4.92806C0.0331076 5.05376 0 5.19264 0 5.33348C0 5.47433 0.0331076 5.6132 0.0966517 5.7389C1.60304 8.67807 4.58527 10.6667 8 10.6667C11.4147 10.6667 14.3978 8.67668 15.9033 5.73862C15.9669 5.61292 16 5.47405 16 5.3332C16 5.19236 15.9669 5.05348 15.9033 4.92779ZM8 9.33335C5.25972 9.33335 2.74749 7.80557 1.39082 5.33334C2.74749 2.86112 5.25944 1.33334 8 1.33334C10.7406 1.33334 13.2525 2.86112 14.6092 5.33334C13.2528 7.80557 10.7406 9.33335 8 9.33335Z" fill="#2C365A"/>
</svg>
